<mxfile host="app.diagrams.net" agent="Mozilla/5.0 (Windows NT 10.0; Win64; x64) AppleWebKit/537.36 (KHTML, like Gecko) Chrome/136.0.0.0 Safari/537.36" version="27.0.6">
  <diagram name="Pagină-1" id="GUe3kHNLrppPJOufhE7y">
    <mxGraphModel dx="1281" dy="1731" grid="1" gridSize="10" guides="1" tooltips="1" connect="1" arrows="1" fold="1" page="1" pageScale="1" pageWidth="827" pageHeight="1169" math="0" shadow="0">
      <root>
        <mxCell id="0" />
        <mxCell id="1" parent="0" />
        <mxCell id="LKSZocIUMz2LyDG790iR-1" value="&lt;font style=&quot;font-size: 14px;&quot;&gt;STRĂZI&lt;/font&gt;&lt;div&gt;Id_stradă#&lt;/div&gt;&lt;div&gt;Nume&lt;/div&gt;&lt;div&gt;Sector&lt;/div&gt;&lt;div&gt;Tip&lt;/div&gt;" style="rounded=0;whiteSpace=wrap;html=1;" parent="1" vertex="1">
          <mxGeometry x="294" y="-560" width="120" height="90" as="geometry" />
        </mxCell>
        <mxCell id="LKSZocIUMz2LyDG790iR-2" value="&lt;font style=&quot;font-size: 14px;&quot;&gt;CAMERE&lt;/font&gt;&lt;div&gt;&lt;font style=&quot;font-size: 12px;&quot;&gt;Id_cameră#&lt;/font&gt;&lt;/div&gt;&lt;div&gt;&lt;font style=&quot;font-size: 12px;&quot;&gt;Id_stradă#&lt;/font&gt;&lt;/div&gt;&lt;div&gt;Tip&lt;/div&gt;&lt;div&gt;Status&lt;/div&gt;" style="whiteSpace=wrap;html=1;" parent="1" vertex="1">
          <mxGeometry x="516" y="-560" width="120" height="90" as="geometry" />
        </mxCell>
        <mxCell id="LKSZocIUMz2LyDG790iR-3" value="&lt;font style=&quot;font-size: 14px;&quot;&gt;VEHICULE&lt;/font&gt;&lt;div&gt;Id_vehicul#&lt;/div&gt;&lt;div&gt;Tip&lt;/div&gt;&lt;div&gt;Număr_înmatriculare&lt;/div&gt;" style="whiteSpace=wrap;html=1;" parent="1" vertex="1">
          <mxGeometry x="680" y="-550" width="120" height="70" as="geometry" />
        </mxCell>
        <mxCell id="LKSZocIUMz2LyDG790iR-4" value="&lt;font style=&quot;font-size: 14px;&quot;&gt;TRECERI_VEHICUL&lt;/font&gt;&lt;div&gt;Id_cameră#&lt;/div&gt;&lt;div&gt;Id_vehicul#&lt;/div&gt;&lt;div&gt;Data_trecere&lt;/div&gt;&lt;div&gt;Viteză&lt;/div&gt;" style="whiteSpace=wrap;html=1;" parent="1" vertex="1">
          <mxGeometry x="580" y="-370" width="150" height="90" as="geometry" />
        </mxCell>
        <mxCell id="LKSZocIUMz2LyDG790iR-5" value="&lt;font style=&quot;font-size: 14px;&quot;&gt;INCIDENTE&lt;/font&gt;&lt;div&gt;Id_incident#&lt;/div&gt;&lt;div&gt;Id_stradă#&lt;/div&gt;&lt;div&gt;Tip&lt;/div&gt;&lt;div&gt;Dată&lt;/div&gt;&lt;div&gt;Gravitate&lt;/div&gt;" style="rounded=0;whiteSpace=wrap;html=1;" parent="1" vertex="1">
          <mxGeometry x="294" y="-360" width="120" height="100" as="geometry" />
        </mxCell>
        <mxCell id="LKSZocIUMz2LyDG790iR-6" value="&lt;font style=&quot;font-size: 14px;&quot;&gt;ECHIPE&lt;/font&gt;&lt;div&gt;Id_echipă#&lt;/div&gt;&lt;div&gt;Tip&lt;/div&gt;&lt;div&gt;Nume_echipă&lt;/div&gt;" style="whiteSpace=wrap;html=1;" parent="1" vertex="1">
          <mxGeometry x="280" y="-120" width="120" height="70" as="geometry" />
        </mxCell>
        <mxCell id="LKSZocIUMz2LyDG790iR-7" value="&lt;font style=&quot;font-size: 14px;&quot;&gt;PERSOANE&lt;/font&gt;&lt;div&gt;Id_persoană#&lt;/div&gt;&lt;div&gt;Nume&lt;/div&gt;&lt;div&gt;Funcție&lt;/div&gt;" style="whiteSpace=wrap;html=1;" parent="1" vertex="1">
          <mxGeometry x="516" y="-120" width="120" height="70" as="geometry" />
        </mxCell>
        <mxCell id="LKSZocIUMz2LyDG790iR-8" value="&lt;font style=&quot;font-size: 14px;&quot;&gt;INTERVENȚII&lt;/font&gt;&lt;div&gt;Id_intervenție#&lt;/div&gt;&lt;div&gt;Id_incident#&lt;/div&gt;&lt;div&gt;Id_echipă#&lt;/div&gt;&lt;div&gt;Dată_început&lt;/div&gt;&lt;div&gt;Dată_sfărșit&lt;/div&gt;" style="rounded=0;whiteSpace=wrap;html=1;" parent="1" vertex="1">
          <mxGeometry x="91" y="-160" width="120" height="100" as="geometry" />
        </mxCell>
        <mxCell id="LKSZocIUMz2LyDG790iR-9" value="&lt;div&gt;&lt;span style=&quot;font-size: 14px;&quot;&gt;SESIZĂRI&lt;/span&gt;&lt;/div&gt;&lt;div&gt;Id_sesizare#&lt;/div&gt;&lt;div&gt;Id_persoană#&lt;/div&gt;&lt;div&gt;Tip&lt;/div&gt;&lt;div&gt;Descriere&lt;/div&gt;&lt;div&gt;Data_sesizării&lt;/div&gt;&lt;div&gt;Status&lt;/div&gt;" style="rounded=0;whiteSpace=wrap;html=1;" parent="1" vertex="1">
          <mxGeometry x="676" y="-260" width="120" height="110" as="geometry" />
        </mxCell>
        <mxCell id="LKSZocIUMz2LyDG790iR-10" value="&lt;font style=&quot;font-size: 14px;&quot;&gt;STAȚII_TRANSPORT&lt;/font&gt;&lt;div&gt;Id_stație#&lt;/div&gt;&lt;div&gt;Nume&lt;/div&gt;&lt;div&gt;Sector&lt;/div&gt;" style="rounded=0;whiteSpace=wrap;html=1;" parent="1" vertex="1">
          <mxGeometry x="40" y="-610" width="150" height="70" as="geometry" />
        </mxCell>
        <mxCell id="LKSZocIUMz2LyDG790iR-11" value="&lt;font style=&quot;font-size: 14px;&quot;&gt;TRASEE_TRANSPORT&lt;/font&gt;&lt;div&gt;Id_traseu#&lt;/div&gt;&lt;div&gt;Tip&lt;/div&gt;&lt;div&gt;Linie&lt;/div&gt;" style="rounded=0;whiteSpace=wrap;html=1;" parent="1" vertex="1">
          <mxGeometry x="35" y="-270" width="160" height="70" as="geometry" />
        </mxCell>
        <mxCell id="LKSZocIUMz2LyDG790iR-12" value="&lt;font style=&quot;font-size: 14px;&quot;&gt;TRASEE_STAȚIE&lt;/font&gt;&lt;div&gt;Id_traseu#&lt;/div&gt;&lt;div&gt;Id_stație#&lt;/div&gt;&lt;div&gt;Ordine&lt;/div&gt;" style="rounded=0;whiteSpace=wrap;html=1;" parent="1" vertex="1">
          <mxGeometry x="52" y="-440" width="126" height="70" as="geometry" />
        </mxCell>
        <mxCell id="o_GgdEYxXuGtxD9GqFe6-2" value="" style="endArrow=none;html=1;rounded=0;exitX=0.5;exitY=1;exitDx=0;exitDy=0;entryX=0.25;entryY=0;entryDx=0;entryDy=0;" parent="1" source="LKSZocIUMz2LyDG790iR-2" target="LKSZocIUMz2LyDG790iR-4" edge="1">
          <mxGeometry width="50" height="50" relative="1" as="geometry">
            <mxPoint x="386" y="-410" as="sourcePoint" />
            <mxPoint x="436" y="-460" as="targetPoint" />
          </mxGeometry>
        </mxCell>
        <mxCell id="o_GgdEYxXuGtxD9GqFe6-3" value="" style="endArrow=none;html=1;rounded=0;exitX=1;exitY=0.5;exitDx=0;exitDy=0;entryX=0;entryY=0.5;entryDx=0;entryDy=0;" parent="1" source="LKSZocIUMz2LyDG790iR-1" target="LKSZocIUMz2LyDG790iR-2" edge="1">
          <mxGeometry width="50" height="50" relative="1" as="geometry">
            <mxPoint x="156" y="-460" as="sourcePoint" />
            <mxPoint x="286" y="-395" as="targetPoint" />
          </mxGeometry>
        </mxCell>
        <mxCell id="o_GgdEYxXuGtxD9GqFe6-4" value="" style="endArrow=none;html=1;rounded=0;exitX=0.5;exitY=1;exitDx=0;exitDy=0;entryX=0.75;entryY=0;entryDx=0;entryDy=0;" parent="1" source="LKSZocIUMz2LyDG790iR-3" target="LKSZocIUMz2LyDG790iR-4" edge="1">
          <mxGeometry width="50" height="50" relative="1" as="geometry">
            <mxPoint x="296" y="-430" as="sourcePoint" />
            <mxPoint x="356" y="-395" as="targetPoint" />
          </mxGeometry>
        </mxCell>
        <mxCell id="o_GgdEYxXuGtxD9GqFe6-5" value="" style="endArrow=none;html=1;rounded=0;exitX=0.5;exitY=1;exitDx=0;exitDy=0;entryX=0.5;entryY=0;entryDx=0;entryDy=0;" parent="1" source="LKSZocIUMz2LyDG790iR-1" target="LKSZocIUMz2LyDG790iR-5" edge="1">
          <mxGeometry width="50" height="50" relative="1" as="geometry">
            <mxPoint x="256" y="-330" as="sourcePoint" />
            <mxPoint x="316" y="-295" as="targetPoint" />
          </mxGeometry>
        </mxCell>
        <mxCell id="o_GgdEYxXuGtxD9GqFe6-6" value="" style="endArrow=none;html=1;rounded=0;exitX=0.5;exitY=1;exitDx=0;exitDy=0;" parent="1" source="LKSZocIUMz2LyDG790iR-5" edge="1">
          <mxGeometry width="50" height="50" relative="1" as="geometry">
            <mxPoint x="196" y="-300" as="sourcePoint" />
            <mxPoint x="270" y="-190" as="targetPoint" />
          </mxGeometry>
        </mxCell>
        <mxCell id="o_GgdEYxXuGtxD9GqFe6-7" value="" style="endArrow=none;html=1;rounded=0;entryX=0.5;entryY=0;entryDx=0;entryDy=0;" parent="1" target="LKSZocIUMz2LyDG790iR-8" edge="1">
          <mxGeometry width="50" height="50" relative="1" as="geometry">
            <mxPoint x="270" y="-190" as="sourcePoint" />
            <mxPoint x="526" y="-155" as="targetPoint" />
          </mxGeometry>
        </mxCell>
        <mxCell id="o_GgdEYxXuGtxD9GqFe6-8" value="" style="endArrow=none;html=1;rounded=0;exitX=1;exitY=0.5;exitDx=0;exitDy=0;entryX=0;entryY=0.5;entryDx=0;entryDy=0;" parent="1" source="LKSZocIUMz2LyDG790iR-6" target="LKSZocIUMz2LyDG790iR-7" edge="1">
          <mxGeometry width="50" height="50" relative="1" as="geometry">
            <mxPoint x="536" y="-300" as="sourcePoint" />
            <mxPoint x="596" y="-265" as="targetPoint" />
          </mxGeometry>
        </mxCell>
        <mxCell id="o_GgdEYxXuGtxD9GqFe6-9" value="" style="endArrow=none;html=1;rounded=0;entryX=0.5;entryY=0;entryDx=0;entryDy=0;" parent="1" target="LKSZocIUMz2LyDG790iR-6" edge="1">
          <mxGeometry width="50" height="50" relative="1" as="geometry">
            <mxPoint x="270" y="-190" as="sourcePoint" />
            <mxPoint x="496" y="-135" as="targetPoint" />
          </mxGeometry>
        </mxCell>
        <mxCell id="o_GgdEYxXuGtxD9GqFe6-10" value="" style="endArrow=none;html=1;rounded=0;exitX=1;exitY=0.5;exitDx=0;exitDy=0;entryX=0.5;entryY=1;entryDx=0;entryDy=0;" parent="1" source="LKSZocIUMz2LyDG790iR-7" target="LKSZocIUMz2LyDG790iR-9" edge="1">
          <mxGeometry width="50" height="50" relative="1" as="geometry">
            <mxPoint x="566" y="-40" as="sourcePoint" />
            <mxPoint x="696" y="-130" as="targetPoint" />
          </mxGeometry>
        </mxCell>
        <mxCell id="o_GgdEYxXuGtxD9GqFe6-11" value="" style="endArrow=none;html=1;rounded=0;exitX=1;exitY=0.75;exitDx=0;exitDy=0;entryX=0;entryY=0.25;entryDx=0;entryDy=0;" parent="1" edge="1" target="LKSZocIUMz2LyDG790iR-1" source="LKSZocIUMz2LyDG790iR-10">
          <mxGeometry width="50" height="50" relative="1" as="geometry">
            <mxPoint x="356" y="-30" as="sourcePoint" />
            <mxPoint x="416" y="5" as="targetPoint" />
          </mxGeometry>
        </mxCell>
        <mxCell id="g11tE4wKxilXLev9GJtG-1" value="" style="endArrow=none;html=1;rounded=0;exitX=0.5;exitY=0;exitDx=0;exitDy=0;entryX=0.5;entryY=1;entryDx=0;entryDy=0;" edge="1" parent="1" source="LKSZocIUMz2LyDG790iR-12" target="LKSZocIUMz2LyDG790iR-10">
          <mxGeometry width="50" height="50" relative="1" as="geometry">
            <mxPoint x="386" y="-310" as="sourcePoint" />
            <mxPoint x="436" y="-360" as="targetPoint" />
          </mxGeometry>
        </mxCell>
        <mxCell id="g11tE4wKxilXLev9GJtG-2" value="" style="endArrow=none;html=1;rounded=0;exitX=0.5;exitY=0;exitDx=0;exitDy=0;entryX=0.5;entryY=1;entryDx=0;entryDy=0;" edge="1" parent="1" source="LKSZocIUMz2LyDG790iR-11" target="LKSZocIUMz2LyDG790iR-12">
          <mxGeometry width="50" height="50" relative="1" as="geometry">
            <mxPoint x="186" y="-280" as="sourcePoint" />
            <mxPoint x="196" y="-340" as="targetPoint" />
          </mxGeometry>
        </mxCell>
        <mxCell id="g11tE4wKxilXLev9GJtG-5" value="&lt;font style=&quot;font-size: 14px;&quot;&gt;ZONĂ&lt;/font&gt;&lt;div&gt;Id_zonă#&lt;/div&gt;&lt;div&gt;Nume_zonă&lt;/div&gt;" style="rounded=0;whiteSpace=wrap;html=1;" vertex="1" parent="1">
          <mxGeometry x="294" y="-720" width="120" height="60" as="geometry" />
        </mxCell>
        <mxCell id="g11tE4wKxilXLev9GJtG-6" value="" style="endArrow=none;html=1;rounded=0;exitX=0.5;exitY=0;exitDx=0;exitDy=0;entryX=0.5;entryY=1;entryDx=0;entryDy=0;" edge="1" parent="1" source="LKSZocIUMz2LyDG790iR-1" target="g11tE4wKxilXLev9GJtG-5">
          <mxGeometry width="50" height="50" relative="1" as="geometry">
            <mxPoint x="390" y="-650" as="sourcePoint" />
            <mxPoint x="440" y="-700" as="targetPoint" />
          </mxGeometry>
        </mxCell>
      </root>
    </mxGraphModel>
  </diagram>
</mxfile>
